<?xml version="1.0" encoding="UTF-8"?>
<!DOCTYPE svg PUBLIC "-//W3C//DTD SVG 1.1//EN" "http://www.w3.org/Graphics/SVG/1.1/DTD/svg11.dtd">
<svg xmlns="http://www.w3.org/2000/svg" version="1.1" width="512px" height="512px" style="shape-rendering:geometricPrecision; text-rendering:geometricPrecision; image-rendering:optimizeQuality; fill-rule:evenodd; clip-rule:evenodd" xmlns:xlink="http://www.w3.org/1999/xlink">
<g><path style="opacity:0.995" fill="#202020" d="M 81.5,63.5 C 197.834,63.3333 314.167,63.5 430.5,64C 452.42,69.9209 465.254,84.0876 469,106.5C 469.667,183.833 469.667,261.167 469,338.5C 466.33,361.166 454.163,376 432.5,383C 398.502,383.5 364.502,383.667 330.5,383.5C 330.5,401.167 330.5,418.833 330.5,436.5C 344.504,436.333 358.504,436.5 372.5,437C 383.481,442.068 386.648,450.235 382,461.5C 379.795,464.04 377.295,466.207 374.5,468C 334.878,469.155 295.212,469.655 255.5,469.5C 215.788,469.655 176.122,469.155 136.5,468C 128.283,463.053 125.45,455.886 128,446.5C 130.325,441.509 134.158,438.342 139.5,437C 153.163,436.5 166.829,436.333 180.5,436.5C 180.5,418.833 180.5,401.167 180.5,383.5C 147.165,383.667 113.832,383.5 80.5,383C 57.9241,377.694 45.0908,363.528 42,340.5C 41.8333,301.833 41.6667,263.167 41.5,224.5C 41.3563,183.142 41.8563,141.809 43,100.5C 48.6643,80.6046 61.4976,68.2713 81.5,63.5 Z M 213.5,383.5 C 241.5,383.5 269.5,383.5 297.5,383.5C 297.5,401.167 297.5,418.833 297.5,436.5C 269.5,436.5 241.5,436.5 213.5,436.5C 213.5,418.833 213.5,401.167 213.5,383.5 Z"/></g>
</svg>
