<?xml version="1.0" encoding="UTF-8"?>
<svg version="1.1" xmlns="http://www.w3.org/2000/svg" width="512" height="512">
<path d="M0 0 C6.72325058 5.59658564 12.24494633 12.02145153 17.6953125 18.83203125 C20.40244493 22.09613351 23.24511667 25.19281224 26.14453125 28.28515625 C30.58312835 33.02355516 34.73597379 37.90637449 38.80078125 42.97265625 C41.95559345 46.75843089 45.31466927 50.33249059 48.68334961 53.92724609 C52.76732037 58.31103608 56.57015619 62.85567992 60.3046875 67.54296875 C62.05230365 69.76219385 62.05230365 69.76219385 63.890625 71.46484375 C65.14453125 72.78515625 65.14453125 72.78515625 65.14453125 74.78515625 C65.80453125 74.78515625 66.46453125 74.78515625 67.14453125 74.78515625 C68.68304891 76.50467599 70.15184884 78.28703122 71.58203125 80.09765625 C74.59688694 83.94982627 74.59688694 83.94982627 77.9296875 87.515625 C79.14453125 88.78515625 79.14453125 88.78515625 79.14453125 90.78515625 C79.80453125 90.78515625 80.46453125 90.78515625 81.14453125 90.78515625 C82.68304891 92.50467599 84.15184884 94.28703122 85.58203125 96.09765625 C88.59688694 99.94982627 88.59688694 99.94982627 91.9296875 103.515625 C93.14453125 104.78515625 93.14453125 104.78515625 93.14453125 106.78515625 C93.80453125 106.78515625 94.46453125 106.78515625 95.14453125 106.78515625 C96.68304891 108.50467599 98.15184884 110.28703122 99.58203125 112.09765625 C102.59688694 115.94982627 102.59688694 115.94982627 105.9296875 119.515625 C107.14453125 120.78515625 107.14453125 120.78515625 107.14453125 122.78515625 C107.80453125 122.78515625 108.46453125 122.78515625 109.14453125 122.78515625 C110.60113102 124.39898573 111.98502076 126.07878841 113.33203125 127.78515625 C116.12644812 131.28940892 118.9416061 134.71949396 121.95703125 138.03515625 C127.70532166 144.62173901 130.73952582 150.87503679 131.14453125 159.78515625 C129.87018072 169.71630179 124.1550986 176.59947852 116.46484375 182.55859375 C109.81932961 186.0715423 102.80771494 186.07120413 95.47961426 186.03239441 C94.42895043 186.03480882 93.3782866 186.03722324 92.29578447 186.03971082 C88.78762052 186.04533063 85.27964005 186.03669754 81.77148438 186.02807617 C79.2512965 186.02914948 76.73110886 186.03108889 74.21092224 186.03382874 C68.08381976 186.0381697 61.95678499 186.0332441 55.82968986 186.02397843 C48.68924455 186.01357037 41.54881081 186.01366527 34.40835935 186.01415101 C21.66496905 186.01465117 8.92160389 186.00550271 -3.82177734 185.9909668 C-16.17757627 185.97688034 -28.53335309 185.96979608 -40.88916016 185.97045898 C-41.65019301 185.97049894 -42.41122586 185.9705389 -43.19532031 185.97058006 C-43.95505816 185.97062042 -44.714796 185.97066077 -45.49755621 185.97070235 C-59.57813373 185.97139291 -73.65870189 185.96549802 -87.73927638 185.95654913 C-92.71245063 185.95353773 -97.68562316 185.95247016 -102.65879822 185.95201683 C-109.35647091 185.95126187 -116.05411725 185.94490061 -122.75178337 185.93485069 C-125.20919083 185.9319321 -127.66660096 185.93069903 -130.12401009 185.93127823 C-133.47954855 185.93176979 -136.83502232 185.92610458 -140.19055176 185.91886902 C-141.16176578 185.92041762 -142.1329798 185.92196622 -143.13362455 185.92356175 C-158.31841321 185.86953278 -158.31841321 185.86953278 -164.85546875 180.78515625 C-165.70109375 180.22828125 -166.54671875 179.67140625 -167.41796875 179.09765625 C-171.73118011 175.00563522 -175.61164399 168.6030738 -176.12890625 162.625 C-176.55570099 146.22623285 -168.36425645 138.4298576 -157.85546875 126.78515625 C-157.37335938 126.25051758 -156.89125 125.71587891 -156.39453125 125.16503906 C-154.42507332 122.98355134 -152.45227866 120.80576851 -150.46484375 118.640625 C-148.79435108 116.86977203 -148.79435108 116.86977203 -147.85546875 114.78515625 C-147.19546875 114.78515625 -146.53546875 114.78515625 -145.85546875 114.78515625 C-145.60925781 114.21925781 -145.36304688 113.65335937 -145.109375 113.0703125 C-143.64010651 110.39267367 -141.8779444 108.45472013 -139.79296875 106.22265625 C-136.5825579 102.72596672 -133.51090636 99.17716232 -130.54296875 95.47265625 C-126.65226167 90.65850037 -122.52546409 86.13591291 -118.29760742 81.62182617 C-115.18022149 78.27451382 -112.21987708 74.85528837 -109.35546875 71.28515625 C-105.53552864 66.52407147 -101.46608056 62.072426 -97.296875 57.62109375 C-94.17978321 54.27398756 -91.21965762 50.85501484 -88.35546875 47.28515625 C-84.01619531 41.88078843 -79.3515046 36.83560502 -74.62890625 31.76953125 C-70.28435864 27.10864717 -66.13258388 22.29224398 -62.01171875 17.43359375 C-58.98180845 13.86469533 -55.92825054 10.31719135 -52.85546875 6.78515625 C-51.87707031 5.6559375 -51.87707031 5.6559375 -50.87890625 4.50390625 C-37.90170734 -9.51884897 -15.28708852 -11.21053158 0 0 Z " fill="#202020" transform="translate(278.85546875,177.21484375)"/>
</svg>
