<?xml version="1.0" encoding="UTF-8"?>
<svg version="1.1" xmlns="http://www.w3.org/2000/svg" width="512" height="512">
<path d="M0 0 C1.08656138 -0.00538554 2.17312275 -0.01077108 3.29261023 -0.01631981 C6.92830786 -0.03061099 10.56364201 -0.02349258 14.19935608 -0.01637268 C16.80806776 -0.0220756 19.41677694 -0.02903956 22.02548218 -0.03717041 C28.37263735 -0.05434726 34.71969348 -0.05520078 41.06686585 -0.04995751 C46.2268238 -0.04591259 51.38675251 -0.04736317 56.54670906 -0.05270576 C57.28169694 -0.05345419 58.01668482 -0.05420261 58.77394505 -0.05497371 C60.26717047 -0.05650522 61.76039588 -0.05804357 63.25362129 -0.05958868 C77.24976957 -0.07330962 91.24586193 -0.06787883 105.24200893 -0.05640347 C118.03993739 -0.04647086 130.83772128 -0.05941291 143.63562744 -0.08333766 C156.78472702 -0.10773327 169.93375928 -0.11733544 183.08288103 -0.11068493 C190.46185133 -0.10719381 197.84071045 -0.10941766 205.21966362 -0.12693596 C212.1578955 -0.143204 219.0958468 -0.1384691 226.03407097 -0.11963081 C228.58016914 -0.11594006 231.1262877 -0.11906747 233.6723671 -0.1295166 C237.14867827 -0.142694 240.62407022 -0.13120638 244.1003418 -0.11352539 C245.61071381 -0.1279329 245.61071381 -0.1279329 247.15159839 -0.14263147 C255.94890415 -0.0506044 262.09185778 2.88594545 268.57460022 8.74705505 C274.27946741 14.82838556 275.49899086 21.62925343 275.39100647 29.7040863 C274.14455273 41.76484295 265.34986396 50.26810263 257.54725647 58.7431488 C253.36847504 63.28413601 249.33999634 67.94955241 245.33241272 72.6415863 C240.00956088 78.87273974 234.65600695 85.06015196 229.15272522 91.1337738 C227.14605997 93.3518693 225.15472806 95.58199178 223.17616272 97.82518005 C222.63088928 98.44264099 222.08561584 99.06010193 221.52381897 99.6962738 C219.93244233 101.54385511 219.93244233 101.54385511 218.11366272 104.38768005 C217.45366272 104.38768005 216.79366272 104.38768005 216.11366272 104.38768005 C215.87776428 104.94197693 215.64186584 105.4962738 215.39881897 106.06736755 C213.80101722 108.95215247 211.79515263 111.09940038 209.55116272 113.51268005 C206.47647085 116.70275515 206.47647085 116.70275515 204.11366272 120.38768005 C203.45366272 120.38768005 202.79366272 120.38768005 202.11366272 120.38768005 C201.88807678 120.93295349 201.66249084 121.47822693 201.43006897 122.0400238 C199.72223126 125.08575218 197.44312718 127.44089853 195.05116272 129.95018005 C191.4237928 133.82443903 187.93819699 137.74553881 184.61366272 141.88768005 C180.49713661 147.0001399 176.12137432 151.81344559 171.66444397 156.6259613 C167.4209906 161.22032812 163.32070623 165.92274578 159.33631897 170.7431488 C149.97646596 181.99533294 140.89653487 191.69885128 125.61366272 193.26268005 C114.29715169 193.78841808 104.63313085 190.43744268 95.92616272 183.07518005 C92.70542018 180.08633098 89.7938334 176.89306838 86.95350647 173.54393005 C84.93098542 171.17358691 82.83952424 168.876297 80.73866272 166.57518005 C77.64729471 163.15538677 74.6890724 159.66809482 71.80116272 156.07518005 C67.91045564 151.26102417 63.78365806 146.73843672 59.55580139 142.22434998 C56.43841546 138.87703763 53.47807105 135.45781217 50.61366272 131.88768005 C46.27322838 126.48186638 41.60724913 121.43540133 36.88319397 116.3681488 C33.53967802 112.78126508 30.31356412 109.10287372 27.11366272 105.38768005 C24.99016722 102.92804412 22.86483256 100.47000448 20.73866272 98.01268005 C20.17405334 97.35993103 19.60944397 96.70718201 19.02772522 96.03465271 C15.77915402 92.28622918 12.50199936 88.5680475 9.17616272 84.88768005 C-0.88633728 73.74838116 -0.88633728 73.74838116 -0.88633728 71.38768005 C-1.54633728 71.38768005 -2.20633728 71.38768005 -2.88633728 71.38768005 C-4.23731102 69.87616459 -5.51561073 68.29954693 -6.76133728 66.70018005 C-10.3464128 62.19422084 -14.10065416 57.98938754 -18.07383728 53.82518005 C-26.87147873 44.52351425 -31.58238966 36.40732686 -31.29258728 23.52049255 C-30.81866553 16.07653587 -26.76357212 10.892162 -21.44883728 5.95018005 C-14.85926779 0.41758411 -8.25124246 -0.04914093 0 0 Z " fill="#202020" transform="translate(133.88633728027344,169.61231994628906)"/>
</svg>
