<?xml version="1.0" standalone="no"?>
<!DOCTYPE svg PUBLIC "-//W3C//DTD SVG 20010904//EN"
 "http://www.w3.org/TR/2001/REC-SVG-20010904/DTD/svg10.dtd">
<svg version="1.0" xmlns="http://www.w3.org/2000/svg"
 width="512.000000pt" height="512.000000pt" viewBox="0 0 512.000000 512.000000"
 preserveAspectRatio="xMidYMid meet">

<g transform="translate(0.000000,512.000000) scale(0.100000,-0.100000)"
fill="#000000" stroke="none">
<path d="M3357 4256 c-50 -14 -108 -61 -132 -107 -12 -21 -48 -158 -79 -293
l-7 -29 -197 6 c-228 7 -258 2 -317 -58 -83 -82 -85 -200 -7 -287 55 -61 85
-69 270 -78 90 -4 165 -10 168 -13 3 -3 0 -31 -5 -63 -8 -45 -41 -277 -41
-290 0 -1 -27 -19 -61 -40 -34 -20 -93 -62 -133 -94 -315 -250 -482 -576 -463
-903 6 -109 20 -164 60 -244 130 -255 395 -331 746 -213 85 29 86 29 104 9 29
-31 59 -47 107 -58 149 -33 281 101 248 253 l-10 49 83 76 c202 185 376 447
466 701 15 44 31 80 34 80 17 0 93 -92 124 -151 86 -164 87 -343 2 -504 -60
-112 -195 -235 -355 -320 -121 -65 -157 -215 -76 -322 13 -17 49 -44 79 -59
76 -37 129 -30 240 31 527 287 738 835 510 1321 -93 198 -210 330 -389 438
l-59 35 -3 66 c-5 125 -80 206 -198 213 -49 3 -71 0 -103 -16 -46 -24 -100
-81 -109 -117 -6 -25 -8 -25 -109 -25 -56 0 -142 -7 -190 -15 -48 -9 -89 -14
-91 -13 -3 4 31 197 37 201 2 2 69 11 149 21 158 19 427 70 475 90 147 62 179
243 64 353 -69 64 -109 67 -353 18 -192 -38 -246 -43 -246 -22 0 8 7 36 15 63
21 69 19 157 -4 202 -47 92 -146 135 -244 108z m427 -1453 c-25 -101 -103
-263 -180 -376 -56 -81 -134 -177 -145 -177 -20 0 -58 414 -45 482 6 33 10 36
67 53 97 27 189 43 252 44 l57 1 -6 -27z m-775 -457 c6 -60 25 -168 42 -239
26 -106 29 -131 18 -138 -27 -17 -167 -49 -212 -49 -42 0 -48 3 -64 33 -26 49
-23 165 5 248 27 80 80 170 141 241 54 62 54 61 70 -96z"/>
<path d="M1070 3824 c-227 -35 -422 -103 -477 -168 -62 -74 -70 -179 -20 -255
64 -97 169 -119 307 -63 176 70 379 87 553 44 142 -35 207 -77 243 -156 25
-56 43 -176 26 -176 -5 0 -63 9 -127 20 -297 51 -589 12 -843 -112 -168 -82
-296 -223 -359 -396 -120 -328 -26 -690 232 -897 78 -63 177 -109 300 -141 92
-24 112 -25 255 -21 174 5 284 29 440 93 119 49 111 50 145 -3 90 -141 305
-124 369 28 13 31 15 142 16 780 1 486 -2 767 -9 810 -25 154 -86 275 -192
381 -65 64 -94 85 -181 126 -166 80 -326 113 -536 111 -64 -1 -128 -3 -142 -5z
m366 -1164 c55 -6 137 -20 184 -33 l85 -22 3 -235 2 -236 -77 -46 c-43 -25
-98 -56 -123 -68 -145 -73 -360 -114 -472 -91 -182 37 -277 145 -286 322 -8
162 47 268 172 327 169 81 308 103 512 82z"/>
</g>
</svg>
