<?xml version="1.0" encoding="UTF-8"?>
<!DOCTYPE svg PUBLIC "-//W3C//DTD SVG 1.1//EN" "http://www.w3.org/Graphics/SVG/1.1/DTD/svg11.dtd">
<svg xmlns="http://www.w3.org/2000/svg" version="1.1" width="512px" height="512px" style="shape-rendering:geometricPrecision; text-rendering:geometricPrecision; image-rendering:optimizeQuality; fill-rule:evenodd; clip-rule:evenodd" xmlns:xlink="http://www.w3.org/1999/xlink">
<g><path style="opacity:0.993" fill="#202020" d="M 238.5,47.5 C 259.355,46.5541 280.021,48.0541 300.5,52C 308.228,53.395 313.062,57.895 315,65.5C 316.273,79.6282 318.273,93.6282 321,107.5C 328.841,121.503 340.674,127.003 356.5,124C 367.833,119 379.167,114 390.5,109C 396.304,107.776 401.638,108.776 406.5,112C 430.587,136.494 446.92,165.494 455.5,199C 455.483,202.383 454.65,205.55 453,208.5C 441.183,218.407 429.183,228.073 417,237.5C 407.147,252.842 408.98,266.675 422.5,279C 433.118,286.228 443.284,294.061 453,302.5C 455.27,306.93 455.937,311.597 455,316.5C 445.096,348.368 428.596,376.201 405.5,400C 400.734,402.31 395.734,402.977 390.5,402C 379.167,397 367.833,392 356.5,387C 338.859,383.402 326.692,389.902 320,406.5C 318.042,419.453 316.375,432.453 315,445.5C 313.062,453.105 308.228,457.605 300.5,459C 270.5,465 240.5,465 210.5,459C 202.772,457.605 197.938,453.105 196,445.5C 194.787,431.364 192.787,417.364 190,403.5C 182.413,389.79 170.913,384.29 155.5,387C 143.833,392 132.167,397 120.5,402C 115.232,403.068 110.232,402.401 105.5,400C 80.8203,375.317 64.1536,345.984 55.5,312C 55.5166,308.617 56.3499,305.45 58,302.5C 69.8171,292.593 81.8171,282.927 94,273.5C 102.667,261.5 102.667,249.5 94,237.5C 84.1186,229.284 73.952,221.451 63.5,214C 55.8697,208.106 53.703,200.606 57,191.5C 66.8531,161.272 82.6864,134.772 104.5,112C 109.399,108.775 114.732,107.775 120.5,109C 131.833,114 143.167,119 154.5,124C 166.741,126.698 177.241,123.532 186,114.5C 188.194,111.446 189.861,108.112 191,104.5C 193.104,91.5651 194.771,78.5651 196,65.5C 197.427,59.0747 201.26,54.9081 207.5,53C 217.87,50.5473 228.203,48.714 238.5,47.5 Z M 254.5,191.5 C 288.574,193.743 309.741,211.41 318,244.5C 321.258,282.894 304.425,307.394 267.5,318C 235.23,321.949 211.73,309.449 197,280.5C 185.279,243.306 196.446,215.473 230.5,197C 238.391,194.059 246.391,192.226 254.5,191.5 Z"/></g>
</svg>
