<?xml version="1.0" encoding="UTF-8"?>
<!DOCTYPE svg PUBLIC "-//W3C//DTD SVG 1.1//EN" "http://www.w3.org/Graphics/SVG/1.1/DTD/svg11.dtd">
<svg xmlns="http://www.w3.org/2000/svg" version="1.1" width="512px" height="512px" style="shape-rendering:geometricPrecision; text-rendering:geometricPrecision; image-rendering:optimizeQuality; fill-rule:evenodd; clip-rule:evenodd" xmlns:xlink="http://www.w3.org/1999/xlink">
<g><path style="opacity:0.991" fill="#202020" d="M 103.5,84.5 C 205.167,84.3333 306.834,84.5 408.5,85C 443.558,91.3916 463.725,112.225 469,147.5C 469.667,219.5 469.667,291.5 469,363.5C 463.854,398.313 444.021,419.146 409.5,426C 306.833,426.667 204.167,426.667 101.5,426C 66.9792,419.146 47.1458,398.313 42,363.5C 41.3333,291.5 41.3333,219.5 42,147.5C 47.5567,111.778 68.0567,90.7779 103.5,84.5 Z M 187.5,172.5 C 200.903,173.185 213.569,176.685 225.5,183C 235.268,190.949 235.935,199.616 227.5,209C 224.551,210.761 221.384,211.928 218,212.5C 210.944,209.814 203.777,207.314 196.5,205C 173.499,202.656 158.333,212.489 151,234.5C 146.094,253.635 148.094,271.969 157,289.5C 167.84,304.66 182.34,309.826 200.5,305C 204.5,303.333 208.5,301.667 212.5,300C 227.991,298.488 234.491,305.321 232,320.5C 230.178,323.321 228.011,325.821 225.5,328C 190.323,345.74 159.823,339.907 134,310.5C 115.506,280.73 112.506,249.396 125,216.5C 137.484,189.833 158.317,175.166 187.5,172.5 Z M 347.5,172.5 C 360.903,173.185 373.569,176.685 385.5,183C 395.268,190.949 395.935,199.616 387.5,209C 384.551,210.761 381.384,211.928 378,212.5C 370.944,209.814 363.777,207.314 356.5,205C 333.499,202.656 318.333,212.489 311,234.5C 306.094,253.635 308.094,271.969 317,289.5C 327.84,304.66 342.34,309.826 360.5,305C 364.5,303.333 368.5,301.667 372.5,300C 387.991,298.488 394.491,305.321 392,320.5C 390.178,323.321 388.011,325.821 385.5,328C 350.323,345.74 319.823,339.907 294,310.5C 275.506,280.73 272.506,249.396 285,216.5C 297.484,189.833 318.317,175.166 347.5,172.5 Z"/></g>
</svg>
