<?xml version="1.0" encoding="UTF-8"?>
<!DOCTYPE svg PUBLIC "-//W3C//DTD SVG 1.1//EN" "http://www.w3.org/Graphics/SVG/1.1/DTD/svg11.dtd">
<svg xmlns="http://www.w3.org/2000/svg" version="1.1" width="512px" height="512px" style="shape-rendering:geometricPrecision; text-rendering:geometricPrecision; image-rendering:optimizeQuality; fill-rule:evenodd; clip-rule:evenodd" xmlns:xlink="http://www.w3.org/1999/xlink">
<g><path style="opacity:0.992" fill="#202020" d="M 342.5,41.5 C 380.069,41.2585 404.569,58.9252 416,94.5C 420.279,115.105 416.612,134.105 405,151.5C 352.194,205.306 299.028,258.806 245.5,312C 237.562,319.302 228.229,323.969 217.5,326C 189.5,334.333 161.5,342.667 133.5,351C 112.906,352.407 104.073,342.907 107,322.5C 116.798,291.438 126.798,260.438 137,229.5C 138.934,225.241 141.268,221.241 144,217.5C 196.833,164.667 249.667,111.833 302.5,59C 314.096,49.0318 327.429,43.1985 342.5,41.5 Z"/></g>
<g><path style="opacity:0.989" fill="#202020" d="M 82.5,297.5 C 86.1667,297.5 89.8333,297.5 93.5,297.5C 91.1079,305.845 88.6079,314.178 86,322.5C 83.8926,346.463 94.0593,362.63 116.5,371C 124.913,373.029 133.246,372.696 141.5,370C 174.271,360.308 206.937,350.308 239.5,340C 244.666,337.252 249.666,334.252 254.5,331C 265.347,319.986 276.347,309.152 287.5,298.5C 334.496,297.333 381.496,297.167 428.5,298C 452.202,300.701 465.702,313.868 469,337.5C 469.667,368.167 469.667,398.833 469,429.5C 465.567,453.6 451.734,466.766 427.5,469C 312.833,469.667 198.167,469.667 83.5,469C 59.2664,466.766 45.433,453.6 42,429.5C 41.0511,396.47 41.3844,363.47 43,330.5C 49.037,310.906 62.2037,299.906 82.5,297.5 Z"/></g>
</svg>
