<?xml version="1.0" standalone="no"?>
<!DOCTYPE svg PUBLIC "-//W3C//DTD SVG 20010904//EN"
 "http://www.w3.org/TR/2001/REC-SVG-20010904/DTD/svg10.dtd">
<svg version="1.0" xmlns="http://www.w3.org/2000/svg"
 width="512.000000pt" height="512.000000pt" viewBox="0 0 512.000000 512.000000"
 preserveAspectRatio="xMidYMid meet">

<g transform="translate(0.000000,512.000000) scale(0.100000,-0.100000)"
fill="#000000" stroke="none">
<path d="M2852 4466 c-23 -8 -57 -25 -75 -39 -18 -13 -248 -217 -512 -452
-264 -235 -494 -434 -512 -441 -26 -11 -122 -14 -456 -14 -240 0 -448 -4 -478
-10 -179 -33 -338 -185 -378 -360 -14 -61 -14 -1119 0 -1180 28 -123 133 -256
247 -314 103 -52 141 -56 605 -56 337 0 434 -3 460 -14 18 -7 253 -210 522
-450 270 -240 509 -448 531 -462 118 -70 289 -19 360 108 l29 53 0 1725 c0
1665 -1 1726 -19 1760 -34 64 -63 95 -116 124 -62 34 -145 42 -208 22z"/>
<path d="M4066 3867 c-54 -31 -78 -78 -73 -144 3 -45 13 -67 71 -152 143 -212
230 -424 283 -686 26 -130 26 -521 0 -650 -54 -266 -139 -472 -285 -689 -63
-94 -67 -104 -67 -156 1 -86 46 -138 137 -155 64 -12 116 20 179 111 426 619
499 1406 193 2087 -84 185 -222 404 -278 438 -43 26 -111 24 -160 -4z"/>
<path d="M3650 3327 c-19 -12 -43 -37 -54 -56 -31 -54 -25 -104 27 -218 26
-56 59 -146 74 -200 25 -91 27 -112 27 -293 0 -182 -2 -202 -27 -293 -15 -54
-48 -144 -74 -200 -53 -114 -59 -163 -27 -218 11 -19 36 -44 55 -57 45 -31
129 -28 177 7 57 40 151 262 193 454 29 131 36 369 16 512 -36 251 -145 523
-227 567 -49 25 -119 24 -160 -5z"/>
</g>
</svg>
