<?xml version="1.0" encoding="UTF-8"?>
<svg version="1.1" xmlns="http://www.w3.org/2000/svg" width="512" height="512">
<path d="M0 0 C1.18418361 -0.00384115 2.36836721 -0.00768229 3.58843517 -0.01163983 C5.52644229 -0.01034011 5.52644229 -0.01034011 7.50360107 -0.00901413 C8.89710986 -0.01159958 10.29061792 -0.01461324 11.68412495 -0.01801753 C15.50867752 -0.02606995 19.3332113 -0.02787612 23.15777135 -0.028615 C27.28476669 -0.03046866 31.41175234 -0.03801766 35.53874207 -0.04475021 C44.56176495 -0.05832242 53.58478339 -0.06435676 62.60781479 -0.06876087 C68.24532922 -0.07152565 73.88284195 -0.07576348 79.52035522 -0.08026505 C95.13833 -0.09245716 110.75630341 -0.102756 126.37428284 -0.10614014 C127.37357046 -0.1063597 128.37285807 -0.10657927 129.40242714 -0.10680549 C130.40406947 -0.10702377 131.40571181 -0.10724204 132.43770695 -0.10746694 C134.4673214 -0.1079104 136.49693585 -0.10835696 138.52655029 -0.10880661 C140.03667987 -0.10913875 140.03667987 -0.10913875 141.57731712 -0.10947761 C157.87931142 -0.11342307 174.18126096 -0.13086968 190.48323798 -0.15416613 C207.23254112 -0.17790796 223.98182182 -0.19034331 240.73114204 -0.19150805 C250.13021407 -0.19242332 259.52922778 -0.19813799 268.92828369 -0.21632767 C276.93426051 -0.23176702 284.940161 -0.23682663 292.94614989 -0.22858956 C297.02687046 -0.22469636 301.10743751 -0.22554716 305.18813896 -0.23964691 C308.93274373 -0.25246634 312.67708088 -0.25111865 316.4216857 -0.2390562 C318.399361 -0.23620095 320.37704128 -0.24797381 322.35467911 -0.26047826 C338.78329262 -0.17063767 352.6661012 3.2245549 364.74871826 14.68220901 C374.50629827 25.26698871 378.16224596 38.73817474 378.14697266 52.81381607 C378.15142934 54.10631701 378.15142934 54.10631701 378.15597606 55.42492908 C378.16463177 58.30570223 378.16616867 61.18643367 378.16766357 64.06721878 C378.17229404 66.13565535 378.177319 68.20409106 378.18270874 70.27252579 C378.19581452 75.88856641 378.20227438 81.5045951 378.2067194 87.12064862 C378.20965364 90.63279267 378.21375916 94.14493347 378.21822357 97.65707588 C378.23189497 108.65562918 378.24156284 119.65417504 378.24542546 130.65273625 C378.24990261 143.33011671 378.26743613 156.00738916 378.29642606 168.68473679 C378.31807867 178.4955977 378.32813169 188.30642831 378.32946658 198.11731285 C378.33051223 203.97118183 378.33636864 209.82494922 378.35428619 215.67879295 C378.37082832 221.19047643 378.37289262 226.70198264 378.36414719 232.21368217 C378.36338004 234.22876588 378.36767664 236.24385937 378.37760544 238.25891876 C378.46780168 257.71653947 376.29335813 273.24307519 362.28387451 287.97517776 C353.49449111 296.29720116 341.08061444 300.24834413 329.08367062 300.26285553 C327.2928564 300.26861725 327.2928564 300.26861725 325.46586412 300.27449536 C324.15790945 300.27362888 322.84995478 300.2727624 321.50236511 300.27186966 C320.0959196 300.27445427 318.68947481 300.27746769 317.28303105 300.28087306 C313.41815322 300.28893531 309.55329397 300.2907322 305.68840873 300.29147053 C301.51985227 300.29332247 297.35130542 300.30087059 293.18275452 300.30760574 C284.06683444 300.3211848 274.95091877 300.32721332 265.83499026 300.3316164 C260.14104605 300.33437995 254.44710354 300.33861754 248.75316048 300.34312057 C232.98338522 300.35531344 217.21361132 300.36561223 201.44383144 300.36899567 C199.9299884 300.36932502 199.9299884 300.36932502 198.38556266 300.36966102 C197.37393646 300.3698793 196.36231026 300.37009757 195.32002872 300.37032247 C193.27013552 300.37076593 191.22024232 300.37121249 189.17034912 300.37166214 C188.1535341 300.37188357 187.13671908 300.372105 186.08909149 300.37233314 C169.62078627 300.37627937 153.15252535 300.39372799 136.68423723 300.41702166 C119.76999362 300.44075263 102.85577222 300.45319834 85.94151169 300.45436358 C76.44747351 300.45527944 66.95349302 300.46100919 57.45947075 300.4791832 C49.37326353 300.49460784 41.28713184 300.49969077 33.20091271 300.49144509 C29.0779169 300.48754675 24.95507307 300.48842811 20.8320961 300.50250244 C17.05116513 300.51529064 13.27049957 300.51400107 9.48956872 300.50191173 C7.48750221 300.49904628 5.4854309 300.5108532 3.48340124 300.52333379 C-12.12514037 300.4384767 -25.2075189 296.50016535 -36.66534424 285.65486526 C-46.67308352 274.80755054 -50.14941203 262.80318037 -50.13391113 248.3663826 C-50.13688226 247.49584263 -50.13985338 246.62530267 -50.14291453 245.72838271 C-50.15157104 242.81763661 -50.15310721 239.90693179 -50.15460205 236.99617386 C-50.15923242 234.9064106 -50.16425738 232.81664819 -50.16964722 230.72688675 C-50.18275304 225.05306387 -50.18921276 219.37925281 -50.19365788 213.70541716 C-50.19659184 210.15776887 -50.20069728 206.61012378 -50.20516205 203.06247711 C-50.21883286 191.954469 -50.22850127 180.84646825 -50.23236394 169.73845232 C-50.23684229 156.93145117 -50.25438165 144.12455687 -50.28336453 131.31758821 C-50.30500866 121.40822996 -50.3150697 111.49890172 -50.31640506 101.5895201 C-50.31745122 95.6758797 -50.32331885 89.7623398 -50.34122467 83.84872437 C-50.35775229 78.28205253 -50.35983807 72.71555625 -50.35108566 67.14886856 C-50.35031777 65.11240162 -50.35462509 63.07592505 -50.36454391 61.03948212 C-50.45221731 41.90819144 -48.2468474 26.89002275 -34.52862549 12.54549026 C-25.27703235 3.73580681 -12.64037171 0.01544825 0 0 Z M84.00653076 72.13142776 C80.86394895 77.01892379 78.06406041 82.11013668 78.53387451 88.06111526 C80.07271478 94.80149001 82.87764879 99.77978619 88.63153076 103.69392776 C93.64477082 106.71384883 98.14323679 107.88527985 104.00653076 107.13142776 C110.39671436 104.97004214 114.57565785 101.17001891 118.75653076 95.94392776 C121.20497946 90.4349182 121.80351831 84.5848904 119.88153076 78.81892776 C118.24756587 75.14435513 116.1065453 72.72678878 113.00653076 70.13142776 C112.11965576 69.38892776 111.23278076 68.64642776 110.31903076 67.88142776 C101.30362528 63.11857204 91.06112755 64.69550142 84.00653076 72.13142776 Z M148.00653076 72.13142776 C144.86394895 77.01892379 142.06406041 82.11013668 142.53387451 88.06111526 C144.07271478 94.80149001 146.87764879 99.77978619 152.63153076 103.69392776 C157.64477082 106.71384883 162.14323679 107.88527985 168.00653076 107.13142776 C174.39671436 104.97004214 178.57565785 101.17001891 182.75653076 95.94392776 C185.20497946 90.4349182 185.80351831 84.5848904 183.88153076 78.81892776 C182.24756587 75.14435513 180.1065453 72.72678878 177.00653076 70.13142776 C176.11965576 69.38892776 175.23278076 68.64642776 174.31903076 67.88142776 C165.30362528 63.11857204 155.06112755 64.69550142 148.00653076 72.13142776 Z M212.00653076 72.13142776 C208.86394895 77.01892379 206.06406041 82.11013668 206.53387451 88.06111526 C208.07271478 94.80149001 210.87764879 99.77978619 216.63153076 103.69392776 C221.64477082 106.71384883 226.14323679 107.88527985 232.00653076 107.13142776 C238.39671436 104.97004214 242.57565785 101.17001891 246.75653076 95.94392776 C249.20497946 90.4349182 249.80351831 84.5848904 247.88153076 78.81892776 C246.24756587 75.14435513 244.1065453 72.72678878 241.00653076 70.13142776 C240.11965576 69.38892776 239.23278076 68.64642776 238.31903076 67.88142776 C229.30362528 63.11857204 219.06112755 64.69550142 212.00653076 72.13142776 Z M276.00653076 72.13142776 C272.86394895 77.01892379 270.06406041 82.11013668 270.53387451 88.06111526 C272.07271478 94.80149001 274.87764879 99.77978619 280.63153076 103.69392776 C285.64477082 106.71384883 290.14323679 107.88527985 296.00653076 107.13142776 C302.39671436 104.97004214 306.57565785 101.17001891 310.75653076 95.94392776 C313.20497946 90.4349182 313.80351831 84.5848904 311.88153076 78.81892776 C310.24756587 75.14435513 308.1065453 72.72678878 305.00653076 70.13142776 C304.11965576 69.38892776 303.23278076 68.64642776 302.31903076 67.88142776 C293.30362528 63.11857204 283.06112755 64.69550142 276.00653076 72.13142776 Z M20.00653076 72.13142776 C16.54156193 77.62162768 14.0256278 82.51033276 15.00653076 89.13142776 C17.09647805 97.42740172 21.75125104 101.71517054 29.00653076 106.13142776 C34.41424825 107.93400026 39.07185567 107.84979788 44.19403076 105.44392776 C50.04575654 102.18531968 54.36913152 97.59706207 56.69403076 91.25642776 C57.80493401 83.70228565 56.39329908 78.34857261 52.00653076 72.13142776 C47.48324243 67.79187068 42.56850057 65.26776545 36.27215576 64.95955276 C30.11909567 65.42633663 24.22748351 67.55872896 20.00653076 72.13142776 Z M54.19403076 134.44392776 C53.47215576 135.33080276 52.75028076 136.21767776 52.00653076 137.13142776 C51.26403076 138.03892776 50.52153076 138.94642776 49.75653076 139.88142776 C46.70234514 145.55348678 46.33173088 150.70040073 48.13153076 156.88142776 C50.59381724 163.28782923 55.26658749 166.63754925 61.00653076 170.13142776 C67.08476365 172.15750539 71.56132093 171.62749045 77.25653076 168.94392776 C83.73115042 165.40420461 86.63784775 161.11904265 89.00653076 154.13142776 C89.92450412 147.13188094 88.11970504 141.87453124 84.00653076 136.13142776 C79.47983313 131.79735557 74.57123344 129.2607931 68.27215576 128.96345901 C62.7641649 129.37181006 58.45760177 130.93832493 54.19403076 134.44392776 Z M118.19403076 134.44392776 C117.47215576 135.33080276 116.75028076 136.21767776 116.00653076 137.13142776 C115.26403076 138.03892776 114.52153076 138.94642776 113.75653076 139.88142776 C110.70234514 145.55348678 110.33173088 150.70040073 112.13153076 156.88142776 C114.59381724 163.28782923 119.26658749 166.63754925 125.00653076 170.13142776 C131.08476365 172.15750539 135.56132093 171.62749045 141.25653076 168.94392776 C147.73115042 165.40420461 150.63784775 161.11904265 153.00653076 154.13142776 C153.92450412 147.13188094 152.11970504 141.87453124 148.00653076 136.13142776 C143.47983313 131.79735557 138.57123344 129.2607931 132.27215576 128.96345901 C126.7641649 129.37181006 122.45760177 130.93832493 118.19403076 134.44392776 Z M182.19403076 134.44392776 C181.47215576 135.33080276 180.75028076 136.21767776 180.00653076 137.13142776 C179.26403076 138.03892776 178.52153076 138.94642776 177.75653076 139.88142776 C174.70234514 145.55348678 174.33173088 150.70040073 176.13153076 156.88142776 C178.59381724 163.28782923 183.26658749 166.63754925 189.00653076 170.13142776 C195.08476365 172.15750539 199.56132093 171.62749045 205.25653076 168.94392776 C211.73115042 165.40420461 214.63784775 161.11904265 217.00653076 154.13142776 C217.92450412 147.13188094 216.11970504 141.87453124 212.00653076 136.13142776 C207.47983313 131.79735557 202.57123344 129.2607931 196.27215576 128.96345901 C190.7641649 129.37181006 186.45760177 130.93832493 182.19403076 134.44392776 Z M244.00653076 136.13142776 C240.54156193 141.62162768 238.0256278 146.51033276 239.00653076 153.13142776 C241.09647805 161.42740172 245.75125104 165.71517054 253.00653076 170.13142776 C258.41424825 171.93400026 263.07185567 171.84979788 268.19403076 169.44392776 C274.04575654 166.18531968 278.36913152 161.59706207 280.69403076 155.25642776 C281.80493401 147.70228565 280.39329908 142.34857261 276.00653076 136.13142776 C271.48324243 131.79187068 266.56850057 129.26776545 260.27215576 128.95955276 C254.11909567 129.42633663 248.22748351 131.55872896 244.00653076 136.13142776 Z M39.75653076 209.31892776 C36.74346155 214.16136042 35.70480182 218.15342694 36.56903076 223.81892776 C39.14790701 229.76155564 43.10070914 232.74038031 49.00653076 235.13142776 C52.14776842 235.55248336 55.25371103 235.53663606 58.41937256 235.51237869 C59.35948276 235.51705866 60.29959295 235.52173864 61.26819134 235.52656043 C64.41418812 235.53851381 67.55974959 235.52905168 70.70574951 235.51961136 C72.96288304 235.5236769 75.22001457 235.52901868 77.47714233 235.53554153 C83.60514323 235.54922296 89.73299268 235.54391298 95.86099625 235.53440428 C102.27238627 235.52681202 108.68376328 235.53385209 115.09515381 235.53856277 C126.55196722 235.54437129 138.00869672 235.53504496 149.46549594 235.51978476 C159.84932555 235.50638184 170.23305453 235.50871002 180.61688232 235.52254105 C192.68075605 235.53860237 204.7445538 235.54456804 216.80844212 235.53570426 C223.19247923 235.53102578 229.57644706 235.53040774 235.96047974 235.54031372 C241.96216104 235.54897581 247.96365221 235.54297511 253.96531296 235.52563095 C256.16877298 235.52166209 258.37224899 235.52280696 260.57570267 235.52941895 C263.58191458 235.53760852 266.58751602 235.52734375 269.59368896 235.51237869 C270.46703731 235.51907086 271.34038565 235.52576302 272.24019909 235.53265798 C278.76995661 235.46954683 282.8845745 234.06476569 287.81903076 229.56892776 C291.52972823 225.43415058 291.34123662 222.30503908 291.29168701 216.89705276 C290.79543556 212.08409347 288.46838491 209.41608747 284.94403076 206.31892776 C280.47534553 203.58005617 275.93616542 203.98606115 270.87852478 203.99098587 C269.93281075 203.98801475 268.98709673 203.98504363 268.0127247 203.98198247 C264.82990575 203.97328052 261.64712435 203.97178596 258.46429443 203.97029495 C256.18790099 203.96566786 253.91150833 203.96064334 251.63511658 203.95524979 C245.44087432 203.94211377 239.24664292 203.93567854 233.05238891 203.93123913 C229.18469264 203.92831048 225.31699935 203.92420609 221.44930458 203.91973495 C210.74083004 203.90762487 200.03235914 203.8972431 189.32387829 203.89385986 C188.63850721 203.8936403 187.95313614 203.89342073 187.24699624 203.89319451 C186.55998537 203.89297623 185.87297449 203.89275796 185.1651451 203.89253306 C183.77299956 203.8920896 182.38085403 203.89164303 180.9887085 203.89119339 C180.29815624 203.89097196 179.60760398 203.89075053 178.89612589 203.89052239 C167.70678262 203.8865744 156.51750447 203.86912027 145.32818636 203.84583387 C133.84035094 203.82211918 122.35255749 203.80991594 110.86469632 203.80849195 C104.41464917 203.80744255 97.96469387 203.80150602 91.51466942 203.78367233 C85.44820784 203.76722576 79.38190748 203.76501959 73.31543159 203.77381134 C71.08777816 203.77458353 68.86011618 203.77021515 66.63248444 203.76035309 C63.59329222 203.7476863 60.55467556 203.75348193 57.51548767 203.76393509 C56.63231107 203.75587868 55.74913448 203.74782228 54.83919495 203.73952174 C48.65124968 203.78935724 44.34184558 204.8609828 39.75653076 209.31892776 Z " fill="#202020" transform="translate(91.99346923828125,105.86857223510742)"/>
</svg>
